<mxfile host="app.diagrams.net" modified="2024-05-14T11:38:15.565Z" agent="Mozilla/5.0 (Windows NT 10.0; Win64; x64) AppleWebKit/537.36 (KHTML, like Gecko) Chrome/124.0.0.0 Safari/537.36" etag="PQIK59r4D2l69mVA_8uy" version="24.4.0" type="github">
  <diagram name="第 1 页" id="H-QFHtq4MZ9f3jdCJHnD">
    <mxGraphModel dx="1436" dy="908" grid="1" gridSize="4" guides="1" tooltips="1" connect="1" arrows="1" fold="1" page="1" pageScale="1" pageWidth="1169" pageHeight="827" math="0" shadow="0">
      <root>
        <mxCell id="0" />
        <mxCell id="1" parent="0" />
        <mxCell id="9--wFmNr1qDu3IU_yxh8-4" value="" style="whiteSpace=wrap;html=1;aspect=fixed;fillColor=none;container=0;" vertex="1" parent="1">
          <mxGeometry x="64" y="64" width="32" height="32" as="geometry" />
        </mxCell>
        <mxCell id="9--wFmNr1qDu3IU_yxh8-5" value="" style="whiteSpace=wrap;html=1;aspect=fixed;fillColor=none;container=0;" vertex="1" parent="1">
          <mxGeometry x="96" y="64" width="32" height="32" as="geometry" />
        </mxCell>
        <mxCell id="9--wFmNr1qDu3IU_yxh8-6" value="" style="whiteSpace=wrap;html=1;aspect=fixed;fillColor=none;container=0;" vertex="1" parent="1">
          <mxGeometry x="64" y="96" width="32" height="32" as="geometry" />
        </mxCell>
        <mxCell id="9--wFmNr1qDu3IU_yxh8-7" value="" style="whiteSpace=wrap;html=1;aspect=fixed;fillColor=none;container=0;" vertex="1" parent="1">
          <mxGeometry x="96" y="96" width="32" height="32" as="geometry" />
        </mxCell>
        <mxCell id="9--wFmNr1qDu3IU_yxh8-10" value="" style="whiteSpace=wrap;html=1;aspect=fixed;fillColor=#fff2cc;strokeColor=#000000;container=0;" vertex="1" parent="1">
          <mxGeometry x="128" y="64" width="32" height="32" as="geometry" />
        </mxCell>
        <mxCell id="9--wFmNr1qDu3IU_yxh8-11" value="" style="whiteSpace=wrap;html=1;aspect=fixed;fillColor=none;container=0;" vertex="1" parent="1">
          <mxGeometry x="160" y="64" width="32" height="32" as="geometry" />
        </mxCell>
        <mxCell id="9--wFmNr1qDu3IU_yxh8-12" value="" style="whiteSpace=wrap;html=1;aspect=fixed;fillColor=#fff2cc;strokeColor=default;container=0;" vertex="1" parent="1">
          <mxGeometry x="128" y="96" width="32" height="32" as="geometry" />
        </mxCell>
        <mxCell id="9--wFmNr1qDu3IU_yxh8-13" value="" style="whiteSpace=wrap;html=1;aspect=fixed;fillColor=none;container=0;" vertex="1" parent="1">
          <mxGeometry x="160" y="96" width="32" height="32" as="geometry" />
        </mxCell>
        <mxCell id="9--wFmNr1qDu3IU_yxh8-15" value="" style="whiteSpace=wrap;html=1;aspect=fixed;fillColor=#fff2cc;container=0;strokeColor=default;" vertex="1" parent="1">
          <mxGeometry x="64" y="128" width="32" height="32" as="geometry" />
        </mxCell>
        <mxCell id="9--wFmNr1qDu3IU_yxh8-16" value="" style="whiteSpace=wrap;html=1;aspect=fixed;fillColor=#fff2cc;container=0;strokeColor=default;" vertex="1" parent="1">
          <mxGeometry x="96" y="128" width="32" height="32" as="geometry" />
        </mxCell>
        <mxCell id="9--wFmNr1qDu3IU_yxh8-17" value="" style="whiteSpace=wrap;html=1;aspect=fixed;fillColor=none;container=0;" vertex="1" parent="1">
          <mxGeometry x="64" y="160" width="32" height="32" as="geometry" />
        </mxCell>
        <mxCell id="9--wFmNr1qDu3IU_yxh8-18" value="" style="whiteSpace=wrap;html=1;aspect=fixed;fillColor=none;container=0;" vertex="1" parent="1">
          <mxGeometry x="96" y="160" width="32" height="32" as="geometry" />
        </mxCell>
        <mxCell id="9--wFmNr1qDu3IU_yxh8-20" value="" style="whiteSpace=wrap;html=1;aspect=fixed;fillColor=#f8cecc;strokeColor=#000000;container=0;" vertex="1" parent="1">
          <mxGeometry x="128" y="128" width="32" height="32" as="geometry" />
        </mxCell>
        <mxCell id="9--wFmNr1qDu3IU_yxh8-21" value="" style="whiteSpace=wrap;html=1;aspect=fixed;fillColor=#fff2cc;container=0;strokeColor=default;" vertex="1" parent="1">
          <mxGeometry x="160" y="128" width="32" height="32" as="geometry" />
        </mxCell>
        <mxCell id="9--wFmNr1qDu3IU_yxh8-22" value="" style="whiteSpace=wrap;html=1;aspect=fixed;fillColor=#fff2cc;container=0;strokeColor=default;" vertex="1" parent="1">
          <mxGeometry x="128" y="160" width="32" height="32" as="geometry" />
        </mxCell>
        <mxCell id="9--wFmNr1qDu3IU_yxh8-23" value="" style="whiteSpace=wrap;html=1;aspect=fixed;fillColor=none;container=0;" vertex="1" parent="1">
          <mxGeometry x="160" y="160" width="32" height="32" as="geometry" />
        </mxCell>
        <mxCell id="9--wFmNr1qDu3IU_yxh8-48" value="" style="whiteSpace=wrap;html=1;aspect=fixed;fillColor=none;container=0;" vertex="1" parent="1">
          <mxGeometry x="192" y="64" width="32" height="32" as="geometry" />
        </mxCell>
        <mxCell id="9--wFmNr1qDu3IU_yxh8-49" value="" style="whiteSpace=wrap;html=1;aspect=fixed;fillColor=none;container=0;" vertex="1" parent="1">
          <mxGeometry x="224" y="64" width="32" height="32" as="geometry" />
        </mxCell>
        <mxCell id="9--wFmNr1qDu3IU_yxh8-50" value="" style="whiteSpace=wrap;html=1;aspect=fixed;fillColor=none;container=0;" vertex="1" parent="1">
          <mxGeometry x="192" y="96" width="32" height="32" as="geometry" />
        </mxCell>
        <mxCell id="9--wFmNr1qDu3IU_yxh8-51" value="" style="whiteSpace=wrap;html=1;aspect=fixed;fillColor=none;container=0;" vertex="1" parent="1">
          <mxGeometry x="224" y="96" width="32" height="32" as="geometry" />
        </mxCell>
        <mxCell id="9--wFmNr1qDu3IU_yxh8-53" value="" style="whiteSpace=wrap;html=1;aspect=fixed;fillColor=none;container=0;" vertex="1" parent="1">
          <mxGeometry x="256" y="64" width="32" height="32" as="geometry" />
        </mxCell>
        <mxCell id="9--wFmNr1qDu3IU_yxh8-54" value="" style="whiteSpace=wrap;html=1;aspect=fixed;fillColor=none;container=0;" vertex="1" parent="1">
          <mxGeometry x="288" y="64" width="32" height="32" as="geometry" />
        </mxCell>
        <mxCell id="9--wFmNr1qDu3IU_yxh8-55" value="" style="whiteSpace=wrap;html=1;aspect=fixed;fillColor=none;container=0;" vertex="1" parent="1">
          <mxGeometry x="256" y="96" width="32" height="32" as="geometry" />
        </mxCell>
        <mxCell id="9--wFmNr1qDu3IU_yxh8-56" value="" style="whiteSpace=wrap;html=1;aspect=fixed;fillColor=none;container=0;" vertex="1" parent="1">
          <mxGeometry x="288" y="96" width="32" height="32" as="geometry" />
        </mxCell>
        <mxCell id="9--wFmNr1qDu3IU_yxh8-58" value="" style="whiteSpace=wrap;html=1;aspect=fixed;fillColor=#fff2cc;container=0;strokeColor=default;" vertex="1" parent="1">
          <mxGeometry x="192" y="128" width="32" height="32" as="geometry" />
        </mxCell>
        <mxCell id="9--wFmNr1qDu3IU_yxh8-59" value="" style="whiteSpace=wrap;html=1;aspect=fixed;fillColor=#fff2cc;container=0;strokeColor=default;" vertex="1" parent="1">
          <mxGeometry x="224" y="128" width="32" height="32" as="geometry" />
        </mxCell>
        <mxCell id="9--wFmNr1qDu3IU_yxh8-60" value="" style="whiteSpace=wrap;html=1;aspect=fixed;fillColor=none;container=0;" vertex="1" parent="1">
          <mxGeometry x="192" y="160" width="32" height="32" as="geometry" />
        </mxCell>
        <mxCell id="9--wFmNr1qDu3IU_yxh8-61" value="" style="whiteSpace=wrap;html=1;aspect=fixed;fillColor=none;container=0;" vertex="1" parent="1">
          <mxGeometry x="224" y="160" width="32" height="32" as="geometry" />
        </mxCell>
        <mxCell id="9--wFmNr1qDu3IU_yxh8-63" value="" style="whiteSpace=wrap;html=1;aspect=fixed;fillColor=#fff2cc;container=0;strokeColor=default;" vertex="1" parent="1">
          <mxGeometry x="256" y="128" width="32" height="32" as="geometry" />
        </mxCell>
        <mxCell id="9--wFmNr1qDu3IU_yxh8-64" value="" style="whiteSpace=wrap;html=1;aspect=fixed;fillColor=#fff2cc;container=0;strokeColor=default;" vertex="1" parent="1">
          <mxGeometry x="288" y="128" width="32" height="32" as="geometry" />
        </mxCell>
        <mxCell id="9--wFmNr1qDu3IU_yxh8-65" value="" style="whiteSpace=wrap;html=1;aspect=fixed;fillColor=none;container=0;" vertex="1" parent="1">
          <mxGeometry x="256" y="160" width="32" height="32" as="geometry" />
        </mxCell>
        <mxCell id="9--wFmNr1qDu3IU_yxh8-66" value="" style="whiteSpace=wrap;html=1;aspect=fixed;fillColor=none;container=0;" vertex="1" parent="1">
          <mxGeometry x="288" y="160" width="32" height="32" as="geometry" />
        </mxCell>
        <mxCell id="9--wFmNr1qDu3IU_yxh8-69" value="" style="whiteSpace=wrap;html=1;aspect=fixed;fillColor=none;container=0;" vertex="1" parent="1">
          <mxGeometry x="64" y="192" width="32" height="32" as="geometry" />
        </mxCell>
        <mxCell id="9--wFmNr1qDu3IU_yxh8-70" value="" style="whiteSpace=wrap;html=1;aspect=fixed;fillColor=none;container=0;" vertex="1" parent="1">
          <mxGeometry x="96" y="192" width="32" height="32" as="geometry" />
        </mxCell>
        <mxCell id="9--wFmNr1qDu3IU_yxh8-71" value="" style="whiteSpace=wrap;html=1;aspect=fixed;fillColor=none;container=0;" vertex="1" parent="1">
          <mxGeometry x="64" y="224" width="32" height="32" as="geometry" />
        </mxCell>
        <mxCell id="9--wFmNr1qDu3IU_yxh8-72" value="" style="whiteSpace=wrap;html=1;aspect=fixed;fillColor=none;container=0;" vertex="1" parent="1">
          <mxGeometry x="96" y="224" width="32" height="32" as="geometry" />
        </mxCell>
        <mxCell id="9--wFmNr1qDu3IU_yxh8-74" value="" style="whiteSpace=wrap;html=1;aspect=fixed;fillColor=#fff2cc;container=0;strokeColor=default;" vertex="1" parent="1">
          <mxGeometry x="128" y="192" width="32" height="32" as="geometry" />
        </mxCell>
        <mxCell id="9--wFmNr1qDu3IU_yxh8-75" value="" style="whiteSpace=wrap;html=1;aspect=fixed;fillColor=none;container=0;" vertex="1" parent="1">
          <mxGeometry x="160" y="192" width="32" height="32" as="geometry" />
        </mxCell>
        <mxCell id="9--wFmNr1qDu3IU_yxh8-76" value="" style="whiteSpace=wrap;html=1;aspect=fixed;fillColor=#fff2cc;container=0;strokeColor=default;" vertex="1" parent="1">
          <mxGeometry x="128" y="224" width="32" height="32" as="geometry" />
        </mxCell>
        <mxCell id="9--wFmNr1qDu3IU_yxh8-77" value="" style="whiteSpace=wrap;html=1;aspect=fixed;fillColor=none;container=0;" vertex="1" parent="1">
          <mxGeometry x="160" y="224" width="32" height="32" as="geometry" />
        </mxCell>
        <mxCell id="9--wFmNr1qDu3IU_yxh8-79" value="" style="whiteSpace=wrap;html=1;aspect=fixed;fillColor=none;container=0;" vertex="1" parent="1">
          <mxGeometry x="64" y="256" width="32" height="32" as="geometry" />
        </mxCell>
        <mxCell id="9--wFmNr1qDu3IU_yxh8-80" value="" style="whiteSpace=wrap;html=1;aspect=fixed;fillColor=none;container=0;" vertex="1" parent="1">
          <mxGeometry x="96" y="256" width="32" height="32" as="geometry" />
        </mxCell>
        <mxCell id="9--wFmNr1qDu3IU_yxh8-81" value="" style="whiteSpace=wrap;html=1;aspect=fixed;fillColor=none;container=0;" vertex="1" parent="1">
          <mxGeometry x="64" y="288" width="32" height="32" as="geometry" />
        </mxCell>
        <mxCell id="9--wFmNr1qDu3IU_yxh8-82" value="" style="whiteSpace=wrap;html=1;aspect=fixed;fillColor=none;container=0;" vertex="1" parent="1">
          <mxGeometry x="96" y="288" width="32" height="32" as="geometry" />
        </mxCell>
        <mxCell id="9--wFmNr1qDu3IU_yxh8-84" value="" style="whiteSpace=wrap;html=1;aspect=fixed;fillColor=#fff2cc;container=0;strokeColor=default;" vertex="1" parent="1">
          <mxGeometry x="128" y="256" width="32" height="32" as="geometry" />
        </mxCell>
        <mxCell id="9--wFmNr1qDu3IU_yxh8-85" value="" style="whiteSpace=wrap;html=1;aspect=fixed;fillColor=none;container=0;" vertex="1" parent="1">
          <mxGeometry x="160" y="256" width="32" height="32" as="geometry" />
        </mxCell>
        <mxCell id="9--wFmNr1qDu3IU_yxh8-86" value="" style="whiteSpace=wrap;html=1;aspect=fixed;fillColor=#fff2cc;container=0;strokeColor=default;" vertex="1" parent="1">
          <mxGeometry x="128" y="288" width="32" height="32" as="geometry" />
        </mxCell>
        <mxCell id="9--wFmNr1qDu3IU_yxh8-87" value="" style="whiteSpace=wrap;html=1;aspect=fixed;fillColor=none;container=0;" vertex="1" parent="1">
          <mxGeometry x="160" y="288" width="32" height="32" as="geometry" />
        </mxCell>
        <mxCell id="9--wFmNr1qDu3IU_yxh8-90" value="" style="whiteSpace=wrap;html=1;aspect=fixed;fillColor=none;container=0;" vertex="1" parent="1">
          <mxGeometry x="192" y="192" width="32" height="32" as="geometry" />
        </mxCell>
        <mxCell id="9--wFmNr1qDu3IU_yxh8-91" value="" style="whiteSpace=wrap;html=1;aspect=fixed;fillColor=none;container=0;" vertex="1" parent="1">
          <mxGeometry x="224" y="192" width="32" height="32" as="geometry" />
        </mxCell>
        <mxCell id="9--wFmNr1qDu3IU_yxh8-92" value="" style="whiteSpace=wrap;html=1;aspect=fixed;fillColor=none;container=0;" vertex="1" parent="1">
          <mxGeometry x="192" y="224" width="32" height="32" as="geometry" />
        </mxCell>
        <mxCell id="9--wFmNr1qDu3IU_yxh8-93" value="" style="whiteSpace=wrap;html=1;aspect=fixed;fillColor=none;container=0;" vertex="1" parent="1">
          <mxGeometry x="224" y="224" width="32" height="32" as="geometry" />
        </mxCell>
        <mxCell id="9--wFmNr1qDu3IU_yxh8-95" value="" style="whiteSpace=wrap;html=1;aspect=fixed;fillColor=none;container=0;" vertex="1" parent="1">
          <mxGeometry x="256" y="192" width="32" height="32" as="geometry" />
        </mxCell>
        <mxCell id="9--wFmNr1qDu3IU_yxh8-96" value="" style="whiteSpace=wrap;html=1;aspect=fixed;fillColor=none;container=0;" vertex="1" parent="1">
          <mxGeometry x="288" y="192" width="32" height="32" as="geometry" />
        </mxCell>
        <mxCell id="9--wFmNr1qDu3IU_yxh8-97" value="" style="whiteSpace=wrap;html=1;aspect=fixed;fillColor=none;container=0;" vertex="1" parent="1">
          <mxGeometry x="256" y="224" width="32" height="32" as="geometry" />
        </mxCell>
        <mxCell id="9--wFmNr1qDu3IU_yxh8-98" value="" style="whiteSpace=wrap;html=1;aspect=fixed;fillColor=none;container=0;" vertex="1" parent="1">
          <mxGeometry x="288" y="224" width="32" height="32" as="geometry" />
        </mxCell>
        <mxCell id="9--wFmNr1qDu3IU_yxh8-100" value="" style="whiteSpace=wrap;html=1;aspect=fixed;fillColor=none;container=0;" vertex="1" parent="1">
          <mxGeometry x="192" y="256" width="32" height="32" as="geometry" />
        </mxCell>
        <mxCell id="9--wFmNr1qDu3IU_yxh8-101" value="" style="whiteSpace=wrap;html=1;aspect=fixed;fillColor=none;container=0;" vertex="1" parent="1">
          <mxGeometry x="224" y="256" width="32" height="32" as="geometry" />
        </mxCell>
        <mxCell id="9--wFmNr1qDu3IU_yxh8-102" value="" style="whiteSpace=wrap;html=1;aspect=fixed;fillColor=none;container=0;" vertex="1" parent="1">
          <mxGeometry x="192" y="288" width="32" height="32" as="geometry" />
        </mxCell>
        <mxCell id="9--wFmNr1qDu3IU_yxh8-103" value="" style="whiteSpace=wrap;html=1;aspect=fixed;fillColor=none;container=0;" vertex="1" parent="1">
          <mxGeometry x="224" y="288" width="32" height="32" as="geometry" />
        </mxCell>
        <mxCell id="9--wFmNr1qDu3IU_yxh8-105" value="" style="whiteSpace=wrap;html=1;aspect=fixed;fillColor=none;container=0;" vertex="1" parent="1">
          <mxGeometry x="256" y="256" width="32" height="32" as="geometry" />
        </mxCell>
        <mxCell id="9--wFmNr1qDu3IU_yxh8-106" value="" style="whiteSpace=wrap;html=1;aspect=fixed;fillColor=none;container=0;" vertex="1" parent="1">
          <mxGeometry x="288" y="256" width="32" height="32" as="geometry" />
        </mxCell>
        <mxCell id="9--wFmNr1qDu3IU_yxh8-107" value="" style="whiteSpace=wrap;html=1;aspect=fixed;fillColor=none;container=0;" vertex="1" parent="1">
          <mxGeometry x="256" y="288" width="32" height="32" as="geometry" />
        </mxCell>
        <mxCell id="9--wFmNr1qDu3IU_yxh8-108" value="" style="whiteSpace=wrap;html=1;aspect=fixed;fillColor=none;container=0;" vertex="1" parent="1">
          <mxGeometry x="288" y="288" width="32" height="32" as="geometry" />
        </mxCell>
        <mxCell id="9--wFmNr1qDu3IU_yxh8-466" value="" style="whiteSpace=wrap;html=1;aspect=fixed;fillColor=none;container=0;" vertex="1" parent="1">
          <mxGeometry x="416" y="64" width="32" height="32" as="geometry" />
        </mxCell>
        <mxCell id="9--wFmNr1qDu3IU_yxh8-467" value="" style="whiteSpace=wrap;html=1;aspect=fixed;fillColor=none;container=0;" vertex="1" parent="1">
          <mxGeometry x="448" y="64" width="32" height="32" as="geometry" />
        </mxCell>
        <mxCell id="9--wFmNr1qDu3IU_yxh8-468" value="" style="whiteSpace=wrap;html=1;aspect=fixed;fillColor=none;container=0;" vertex="1" parent="1">
          <mxGeometry x="416" y="96" width="32" height="32" as="geometry" />
        </mxCell>
        <mxCell id="9--wFmNr1qDu3IU_yxh8-469" value="" style="whiteSpace=wrap;html=1;aspect=fixed;fillColor=none;container=0;" vertex="1" parent="1">
          <mxGeometry x="448" y="96" width="32" height="32" as="geometry" />
        </mxCell>
        <mxCell id="9--wFmNr1qDu3IU_yxh8-470" value="" style="whiteSpace=wrap;html=1;aspect=fixed;fillColor=#fff2cc;strokeColor=#000000;container=0;" vertex="1" parent="1">
          <mxGeometry x="480" y="64" width="32" height="32" as="geometry" />
        </mxCell>
        <mxCell id="9--wFmNr1qDu3IU_yxh8-471" value="" style="whiteSpace=wrap;html=1;aspect=fixed;fillColor=none;container=0;" vertex="1" parent="1">
          <mxGeometry x="512" y="64" width="32" height="32" as="geometry" />
        </mxCell>
        <mxCell id="9--wFmNr1qDu3IU_yxh8-472" value="" style="whiteSpace=wrap;html=1;aspect=fixed;fillColor=#fff2cc;strokeColor=default;container=0;" vertex="1" parent="1">
          <mxGeometry x="480" y="96" width="32" height="32" as="geometry" />
        </mxCell>
        <mxCell id="9--wFmNr1qDu3IU_yxh8-473" value="" style="whiteSpace=wrap;html=1;aspect=fixed;fillColor=none;container=0;" vertex="1" parent="1">
          <mxGeometry x="512" y="96" width="32" height="32" as="geometry" />
        </mxCell>
        <mxCell id="9--wFmNr1qDu3IU_yxh8-474" value="" style="whiteSpace=wrap;html=1;aspect=fixed;fillColor=#fff2cc;container=0;strokeColor=default;" vertex="1" parent="1">
          <mxGeometry x="416" y="128" width="32" height="32" as="geometry" />
        </mxCell>
        <mxCell id="9--wFmNr1qDu3IU_yxh8-475" value="" style="whiteSpace=wrap;html=1;aspect=fixed;fillColor=#fff2cc;container=0;strokeColor=default;" vertex="1" parent="1">
          <mxGeometry x="448" y="128" width="32" height="32" as="geometry" />
        </mxCell>
        <mxCell id="9--wFmNr1qDu3IU_yxh8-476" value="" style="whiteSpace=wrap;html=1;aspect=fixed;fillColor=none;container=0;" vertex="1" parent="1">
          <mxGeometry x="416" y="160" width="32" height="32" as="geometry" />
        </mxCell>
        <mxCell id="9--wFmNr1qDu3IU_yxh8-477" value="" style="whiteSpace=wrap;html=1;aspect=fixed;fillColor=none;container=0;" vertex="1" parent="1">
          <mxGeometry x="448" y="160" width="32" height="32" as="geometry" />
        </mxCell>
        <mxCell id="9--wFmNr1qDu3IU_yxh8-478" value="" style="whiteSpace=wrap;html=1;aspect=fixed;fillColor=#f8cecc;strokeColor=#000000;container=0;" vertex="1" parent="1">
          <mxGeometry x="480" y="128" width="32" height="32" as="geometry" />
        </mxCell>
        <mxCell id="9--wFmNr1qDu3IU_yxh8-479" value="" style="whiteSpace=wrap;html=1;aspect=fixed;fillColor=#fff2cc;container=0;strokeColor=default;" vertex="1" parent="1">
          <mxGeometry x="512" y="128" width="32" height="32" as="geometry" />
        </mxCell>
        <mxCell id="9--wFmNr1qDu3IU_yxh8-480" value="" style="whiteSpace=wrap;html=1;aspect=fixed;fillColor=#fff2cc;container=0;strokeColor=default;" vertex="1" parent="1">
          <mxGeometry x="480" y="160" width="32" height="32" as="geometry" />
        </mxCell>
        <mxCell id="9--wFmNr1qDu3IU_yxh8-481" value="" style="whiteSpace=wrap;html=1;aspect=fixed;fillColor=none;container=0;" vertex="1" parent="1">
          <mxGeometry x="512" y="160" width="32" height="32" as="geometry" />
        </mxCell>
        <mxCell id="9--wFmNr1qDu3IU_yxh8-482" value="" style="whiteSpace=wrap;html=1;aspect=fixed;fillColor=none;container=0;" vertex="1" parent="1">
          <mxGeometry x="544" y="64" width="32" height="32" as="geometry" />
        </mxCell>
        <mxCell id="9--wFmNr1qDu3IU_yxh8-483" value="" style="whiteSpace=wrap;html=1;aspect=fixed;fillColor=none;container=0;" vertex="1" parent="1">
          <mxGeometry x="576" y="64" width="32" height="32" as="geometry" />
        </mxCell>
        <mxCell id="9--wFmNr1qDu3IU_yxh8-484" value="" style="whiteSpace=wrap;html=1;aspect=fixed;fillColor=none;container=0;" vertex="1" parent="1">
          <mxGeometry x="544" y="96" width="32" height="32" as="geometry" />
        </mxCell>
        <mxCell id="9--wFmNr1qDu3IU_yxh8-485" value="" style="whiteSpace=wrap;html=1;aspect=fixed;fillColor=none;container=0;" vertex="1" parent="1">
          <mxGeometry x="576" y="96" width="32" height="32" as="geometry" />
        </mxCell>
        <mxCell id="9--wFmNr1qDu3IU_yxh8-486" value="" style="whiteSpace=wrap;html=1;aspect=fixed;fillColor=none;container=0;" vertex="1" parent="1">
          <mxGeometry x="608" y="64" width="32" height="32" as="geometry" />
        </mxCell>
        <mxCell id="9--wFmNr1qDu3IU_yxh8-487" value="" style="whiteSpace=wrap;html=1;aspect=fixed;fillColor=none;container=0;" vertex="1" parent="1">
          <mxGeometry x="640" y="64" width="32" height="32" as="geometry" />
        </mxCell>
        <mxCell id="9--wFmNr1qDu3IU_yxh8-488" value="" style="whiteSpace=wrap;html=1;aspect=fixed;fillColor=none;container=0;" vertex="1" parent="1">
          <mxGeometry x="608" y="96" width="32" height="32" as="geometry" />
        </mxCell>
        <mxCell id="9--wFmNr1qDu3IU_yxh8-489" value="" style="whiteSpace=wrap;html=1;aspect=fixed;fillColor=none;container=0;" vertex="1" parent="1">
          <mxGeometry x="640" y="96" width="32" height="32" as="geometry" />
        </mxCell>
        <mxCell id="9--wFmNr1qDu3IU_yxh8-490" value="" style="whiteSpace=wrap;html=1;aspect=fixed;fillColor=#fff2cc;container=0;strokeColor=default;" vertex="1" parent="1">
          <mxGeometry x="544" y="128" width="32" height="32" as="geometry" />
        </mxCell>
        <mxCell id="9--wFmNr1qDu3IU_yxh8-491" value="" style="whiteSpace=wrap;html=1;aspect=fixed;fillColor=#fff2cc;container=0;strokeColor=default;" vertex="1" parent="1">
          <mxGeometry x="576" y="128" width="32" height="32" as="geometry" />
        </mxCell>
        <mxCell id="9--wFmNr1qDu3IU_yxh8-492" value="" style="whiteSpace=wrap;html=1;aspect=fixed;fillColor=none;container=0;" vertex="1" parent="1">
          <mxGeometry x="544" y="160" width="32" height="32" as="geometry" />
        </mxCell>
        <mxCell id="9--wFmNr1qDu3IU_yxh8-493" value="" style="whiteSpace=wrap;html=1;aspect=fixed;fillColor=none;container=0;" vertex="1" parent="1">
          <mxGeometry x="576" y="160" width="32" height="32" as="geometry" />
        </mxCell>
        <mxCell id="9--wFmNr1qDu3IU_yxh8-494" value="" style="whiteSpace=wrap;html=1;aspect=fixed;fillColor=#fff2cc;container=0;strokeColor=default;" vertex="1" parent="1">
          <mxGeometry x="608" y="128" width="32" height="32" as="geometry" />
        </mxCell>
        <mxCell id="9--wFmNr1qDu3IU_yxh8-495" value="" style="whiteSpace=wrap;html=1;aspect=fixed;fillColor=#fff2cc;container=0;strokeColor=default;" vertex="1" parent="1">
          <mxGeometry x="640" y="128" width="32" height="32" as="geometry" />
        </mxCell>
        <mxCell id="9--wFmNr1qDu3IU_yxh8-496" value="" style="whiteSpace=wrap;html=1;aspect=fixed;fillColor=none;container=0;" vertex="1" parent="1">
          <mxGeometry x="608" y="160" width="32" height="32" as="geometry" />
        </mxCell>
        <mxCell id="9--wFmNr1qDu3IU_yxh8-497" value="" style="whiteSpace=wrap;html=1;aspect=fixed;fillColor=none;container=0;" vertex="1" parent="1">
          <mxGeometry x="640" y="160" width="32" height="32" as="geometry" />
        </mxCell>
        <mxCell id="9--wFmNr1qDu3IU_yxh8-498" value="" style="whiteSpace=wrap;html=1;aspect=fixed;fillColor=none;container=0;" vertex="1" parent="1">
          <mxGeometry x="416" y="192" width="32" height="32" as="geometry" />
        </mxCell>
        <mxCell id="9--wFmNr1qDu3IU_yxh8-499" value="" style="whiteSpace=wrap;html=1;aspect=fixed;fillColor=none;container=0;" vertex="1" parent="1">
          <mxGeometry x="448" y="192" width="32" height="32" as="geometry" />
        </mxCell>
        <mxCell id="9--wFmNr1qDu3IU_yxh8-500" value="" style="whiteSpace=wrap;html=1;aspect=fixed;fillColor=none;container=0;" vertex="1" parent="1">
          <mxGeometry x="416" y="224" width="32" height="32" as="geometry" />
        </mxCell>
        <mxCell id="9--wFmNr1qDu3IU_yxh8-501" value="" style="whiteSpace=wrap;html=1;aspect=fixed;fillColor=none;container=0;" vertex="1" parent="1">
          <mxGeometry x="448" y="224" width="32" height="32" as="geometry" />
        </mxCell>
        <mxCell id="9--wFmNr1qDu3IU_yxh8-502" value="" style="whiteSpace=wrap;html=1;aspect=fixed;fillColor=#fff2cc;container=0;strokeColor=default;" vertex="1" parent="1">
          <mxGeometry x="480" y="192" width="32" height="32" as="geometry" />
        </mxCell>
        <mxCell id="9--wFmNr1qDu3IU_yxh8-503" value="" style="whiteSpace=wrap;html=1;aspect=fixed;fillColor=none;container=0;" vertex="1" parent="1">
          <mxGeometry x="512" y="192" width="32" height="32" as="geometry" />
        </mxCell>
        <mxCell id="9--wFmNr1qDu3IU_yxh8-504" value="" style="whiteSpace=wrap;html=1;aspect=fixed;fillColor=#fff2cc;container=0;strokeColor=default;" vertex="1" parent="1">
          <mxGeometry x="480" y="224" width="32" height="32" as="geometry" />
        </mxCell>
        <mxCell id="9--wFmNr1qDu3IU_yxh8-505" value="" style="whiteSpace=wrap;html=1;aspect=fixed;fillColor=none;container=0;" vertex="1" parent="1">
          <mxGeometry x="512" y="224" width="32" height="32" as="geometry" />
        </mxCell>
        <mxCell id="9--wFmNr1qDu3IU_yxh8-506" value="" style="whiteSpace=wrap;html=1;aspect=fixed;fillColor=none;container=0;" vertex="1" parent="1">
          <mxGeometry x="416" y="256" width="32" height="32" as="geometry" />
        </mxCell>
        <mxCell id="9--wFmNr1qDu3IU_yxh8-507" value="" style="whiteSpace=wrap;html=1;aspect=fixed;fillColor=none;container=0;" vertex="1" parent="1">
          <mxGeometry x="448" y="256" width="32" height="32" as="geometry" />
        </mxCell>
        <mxCell id="9--wFmNr1qDu3IU_yxh8-508" value="" style="whiteSpace=wrap;html=1;aspect=fixed;fillColor=none;container=0;" vertex="1" parent="1">
          <mxGeometry x="416" y="288" width="32" height="32" as="geometry" />
        </mxCell>
        <mxCell id="9--wFmNr1qDu3IU_yxh8-509" value="" style="whiteSpace=wrap;html=1;aspect=fixed;fillColor=none;container=0;" vertex="1" parent="1">
          <mxGeometry x="448" y="288" width="32" height="32" as="geometry" />
        </mxCell>
        <mxCell id="9--wFmNr1qDu3IU_yxh8-510" value="" style="whiteSpace=wrap;html=1;aspect=fixed;fillColor=#fff2cc;container=0;strokeColor=default;" vertex="1" parent="1">
          <mxGeometry x="480" y="256" width="32" height="32" as="geometry" />
        </mxCell>
        <mxCell id="9--wFmNr1qDu3IU_yxh8-511" value="" style="whiteSpace=wrap;html=1;aspect=fixed;fillColor=none;container=0;" vertex="1" parent="1">
          <mxGeometry x="512" y="256" width="32" height="32" as="geometry" />
        </mxCell>
        <mxCell id="9--wFmNr1qDu3IU_yxh8-512" value="" style="whiteSpace=wrap;html=1;aspect=fixed;fillColor=#fff2cc;container=0;strokeColor=default;" vertex="1" parent="1">
          <mxGeometry x="480" y="288" width="32" height="32" as="geometry" />
        </mxCell>
        <mxCell id="9--wFmNr1qDu3IU_yxh8-513" value="" style="whiteSpace=wrap;html=1;aspect=fixed;fillColor=none;container=0;" vertex="1" parent="1">
          <mxGeometry x="512" y="288" width="32" height="32" as="geometry" />
        </mxCell>
        <mxCell id="9--wFmNr1qDu3IU_yxh8-514" value="" style="whiteSpace=wrap;html=1;aspect=fixed;fillColor=none;container=0;" vertex="1" parent="1">
          <mxGeometry x="544" y="192" width="32" height="32" as="geometry" />
        </mxCell>
        <mxCell id="9--wFmNr1qDu3IU_yxh8-515" value="" style="whiteSpace=wrap;html=1;aspect=fixed;fillColor=none;container=0;" vertex="1" parent="1">
          <mxGeometry x="576" y="192" width="32" height="32" as="geometry" />
        </mxCell>
        <mxCell id="9--wFmNr1qDu3IU_yxh8-516" value="" style="whiteSpace=wrap;html=1;aspect=fixed;fillColor=none;container=0;" vertex="1" parent="1">
          <mxGeometry x="544" y="224" width="32" height="32" as="geometry" />
        </mxCell>
        <mxCell id="9--wFmNr1qDu3IU_yxh8-517" value="" style="whiteSpace=wrap;html=1;aspect=fixed;fillColor=none;container=0;" vertex="1" parent="1">
          <mxGeometry x="576" y="224" width="32" height="32" as="geometry" />
        </mxCell>
        <mxCell id="9--wFmNr1qDu3IU_yxh8-518" value="" style="whiteSpace=wrap;html=1;aspect=fixed;fillColor=none;container=0;" vertex="1" parent="1">
          <mxGeometry x="608" y="192" width="32" height="32" as="geometry" />
        </mxCell>
        <mxCell id="9--wFmNr1qDu3IU_yxh8-519" value="" style="whiteSpace=wrap;html=1;aspect=fixed;fillColor=none;container=0;" vertex="1" parent="1">
          <mxGeometry x="640" y="192" width="32" height="32" as="geometry" />
        </mxCell>
        <mxCell id="9--wFmNr1qDu3IU_yxh8-520" value="" style="whiteSpace=wrap;html=1;aspect=fixed;fillColor=none;container=0;" vertex="1" parent="1">
          <mxGeometry x="608" y="224" width="32" height="32" as="geometry" />
        </mxCell>
        <mxCell id="9--wFmNr1qDu3IU_yxh8-521" value="" style="whiteSpace=wrap;html=1;aspect=fixed;fillColor=none;container=0;" vertex="1" parent="1">
          <mxGeometry x="640" y="224" width="32" height="32" as="geometry" />
        </mxCell>
        <mxCell id="9--wFmNr1qDu3IU_yxh8-522" value="" style="whiteSpace=wrap;html=1;aspect=fixed;fillColor=none;container=0;" vertex="1" parent="1">
          <mxGeometry x="544" y="256" width="32" height="32" as="geometry" />
        </mxCell>
        <mxCell id="9--wFmNr1qDu3IU_yxh8-523" value="" style="whiteSpace=wrap;html=1;aspect=fixed;fillColor=none;container=0;" vertex="1" parent="1">
          <mxGeometry x="576" y="256" width="32" height="32" as="geometry" />
        </mxCell>
        <mxCell id="9--wFmNr1qDu3IU_yxh8-524" value="" style="whiteSpace=wrap;html=1;aspect=fixed;fillColor=none;container=0;" vertex="1" parent="1">
          <mxGeometry x="544" y="288" width="32" height="32" as="geometry" />
        </mxCell>
        <mxCell id="9--wFmNr1qDu3IU_yxh8-525" value="" style="whiteSpace=wrap;html=1;aspect=fixed;fillColor=none;container=0;" vertex="1" parent="1">
          <mxGeometry x="576" y="288" width="32" height="32" as="geometry" />
        </mxCell>
        <mxCell id="9--wFmNr1qDu3IU_yxh8-526" value="" style="whiteSpace=wrap;html=1;aspect=fixed;fillColor=none;container=0;" vertex="1" parent="1">
          <mxGeometry x="608" y="256" width="32" height="32" as="geometry" />
        </mxCell>
        <mxCell id="9--wFmNr1qDu3IU_yxh8-527" value="" style="whiteSpace=wrap;html=1;aspect=fixed;fillColor=none;container=0;" vertex="1" parent="1">
          <mxGeometry x="640" y="256" width="32" height="32" as="geometry" />
        </mxCell>
        <mxCell id="9--wFmNr1qDu3IU_yxh8-528" value="" style="whiteSpace=wrap;html=1;aspect=fixed;fillColor=none;container=0;" vertex="1" parent="1">
          <mxGeometry x="608" y="288" width="32" height="32" as="geometry" />
        </mxCell>
        <mxCell id="9--wFmNr1qDu3IU_yxh8-529" value="" style="whiteSpace=wrap;html=1;aspect=fixed;fillColor=none;container=0;" vertex="1" parent="1">
          <mxGeometry x="640" y="288" width="32" height="32" as="geometry" />
        </mxCell>
        <mxCell id="9--wFmNr1qDu3IU_yxh8-530" value="" style="whiteSpace=wrap;html=1;aspect=fixed;fillColor=none;container=0;" vertex="1" parent="1">
          <mxGeometry x="768" y="64" width="32" height="32" as="geometry" />
        </mxCell>
        <mxCell id="9--wFmNr1qDu3IU_yxh8-531" value="" style="whiteSpace=wrap;html=1;aspect=fixed;fillColor=none;container=0;" vertex="1" parent="1">
          <mxGeometry x="800" y="64" width="32" height="32" as="geometry" />
        </mxCell>
        <mxCell id="9--wFmNr1qDu3IU_yxh8-532" value="" style="whiteSpace=wrap;html=1;aspect=fixed;fillColor=none;container=0;" vertex="1" parent="1">
          <mxGeometry x="768" y="96" width="32" height="32" as="geometry" />
        </mxCell>
        <mxCell id="9--wFmNr1qDu3IU_yxh8-533" value="" style="whiteSpace=wrap;html=1;aspect=fixed;fillColor=none;container=0;" vertex="1" parent="1">
          <mxGeometry x="800" y="96" width="32" height="32" as="geometry" />
        </mxCell>
        <mxCell id="9--wFmNr1qDu3IU_yxh8-534" value="" style="whiteSpace=wrap;html=1;aspect=fixed;fillColor=#fff2cc;strokeColor=#000000;container=0;" vertex="1" parent="1">
          <mxGeometry x="832" y="64" width="32" height="32" as="geometry" />
        </mxCell>
        <mxCell id="9--wFmNr1qDu3IU_yxh8-535" value="" style="whiteSpace=wrap;html=1;aspect=fixed;fillColor=none;container=0;" vertex="1" parent="1">
          <mxGeometry x="864" y="64" width="32" height="32" as="geometry" />
        </mxCell>
        <mxCell id="9--wFmNr1qDu3IU_yxh8-536" value="" style="whiteSpace=wrap;html=1;aspect=fixed;fillColor=#fff2cc;strokeColor=default;container=0;" vertex="1" parent="1">
          <mxGeometry x="832" y="96" width="32" height="32" as="geometry" />
        </mxCell>
        <mxCell id="9--wFmNr1qDu3IU_yxh8-537" value="" style="whiteSpace=wrap;html=1;aspect=fixed;fillColor=none;container=0;" vertex="1" parent="1">
          <mxGeometry x="864" y="96" width="32" height="32" as="geometry" />
        </mxCell>
        <mxCell id="9--wFmNr1qDu3IU_yxh8-538" value="" style="whiteSpace=wrap;html=1;aspect=fixed;fillColor=#fff2cc;container=0;strokeColor=default;" vertex="1" parent="1">
          <mxGeometry x="768" y="128" width="32" height="32" as="geometry" />
        </mxCell>
        <mxCell id="9--wFmNr1qDu3IU_yxh8-539" value="" style="whiteSpace=wrap;html=1;aspect=fixed;fillColor=#fff2cc;container=0;strokeColor=default;" vertex="1" parent="1">
          <mxGeometry x="800" y="128" width="32" height="32" as="geometry" />
        </mxCell>
        <mxCell id="9--wFmNr1qDu3IU_yxh8-540" value="" style="whiteSpace=wrap;html=1;aspect=fixed;fillColor=none;container=0;" vertex="1" parent="1">
          <mxGeometry x="768" y="160" width="32" height="32" as="geometry" />
        </mxCell>
        <mxCell id="9--wFmNr1qDu3IU_yxh8-541" value="" style="whiteSpace=wrap;html=1;aspect=fixed;fillColor=none;container=0;" vertex="1" parent="1">
          <mxGeometry x="800" y="160" width="32" height="32" as="geometry" />
        </mxCell>
        <mxCell id="9--wFmNr1qDu3IU_yxh8-542" value="" style="whiteSpace=wrap;html=1;aspect=fixed;fillColor=#f8cecc;strokeColor=#000000;container=0;" vertex="1" parent="1">
          <mxGeometry x="832" y="128" width="32" height="32" as="geometry" />
        </mxCell>
        <mxCell id="9--wFmNr1qDu3IU_yxh8-543" value="" style="whiteSpace=wrap;html=1;aspect=fixed;fillColor=#fff2cc;container=0;strokeColor=default;" vertex="1" parent="1">
          <mxGeometry x="864" y="128" width="32" height="32" as="geometry" />
        </mxCell>
        <mxCell id="9--wFmNr1qDu3IU_yxh8-544" value="" style="whiteSpace=wrap;html=1;aspect=fixed;fillColor=#fff2cc;container=0;strokeColor=default;" vertex="1" parent="1">
          <mxGeometry x="832" y="160" width="32" height="32" as="geometry" />
        </mxCell>
        <mxCell id="9--wFmNr1qDu3IU_yxh8-545" value="" style="whiteSpace=wrap;html=1;aspect=fixed;fillColor=none;container=0;" vertex="1" parent="1">
          <mxGeometry x="864" y="160" width="32" height="32" as="geometry" />
        </mxCell>
        <mxCell id="9--wFmNr1qDu3IU_yxh8-546" value="" style="whiteSpace=wrap;html=1;aspect=fixed;fillColor=none;container=0;" vertex="1" parent="1">
          <mxGeometry x="896" y="64" width="32" height="32" as="geometry" />
        </mxCell>
        <mxCell id="9--wFmNr1qDu3IU_yxh8-547" value="" style="whiteSpace=wrap;html=1;aspect=fixed;fillColor=none;container=0;" vertex="1" parent="1">
          <mxGeometry x="928" y="64" width="32" height="32" as="geometry" />
        </mxCell>
        <mxCell id="9--wFmNr1qDu3IU_yxh8-548" value="" style="whiteSpace=wrap;html=1;aspect=fixed;fillColor=none;container=0;" vertex="1" parent="1">
          <mxGeometry x="896" y="96" width="32" height="32" as="geometry" />
        </mxCell>
        <mxCell id="9--wFmNr1qDu3IU_yxh8-549" value="" style="whiteSpace=wrap;html=1;aspect=fixed;fillColor=none;container=0;" vertex="1" parent="1">
          <mxGeometry x="928" y="96" width="32" height="32" as="geometry" />
        </mxCell>
        <mxCell id="9--wFmNr1qDu3IU_yxh8-550" value="" style="whiteSpace=wrap;html=1;aspect=fixed;fillColor=none;container=0;" vertex="1" parent="1">
          <mxGeometry x="960" y="64" width="32" height="32" as="geometry" />
        </mxCell>
        <mxCell id="9--wFmNr1qDu3IU_yxh8-551" value="" style="whiteSpace=wrap;html=1;aspect=fixed;fillColor=none;container=0;" vertex="1" parent="1">
          <mxGeometry x="992" y="64" width="32" height="32" as="geometry" />
        </mxCell>
        <mxCell id="9--wFmNr1qDu3IU_yxh8-552" value="" style="whiteSpace=wrap;html=1;aspect=fixed;fillColor=none;container=0;" vertex="1" parent="1">
          <mxGeometry x="960" y="96" width="32" height="32" as="geometry" />
        </mxCell>
        <mxCell id="9--wFmNr1qDu3IU_yxh8-553" value="" style="whiteSpace=wrap;html=1;aspect=fixed;fillColor=none;container=0;" vertex="1" parent="1">
          <mxGeometry x="992" y="96" width="32" height="32" as="geometry" />
        </mxCell>
        <mxCell id="9--wFmNr1qDu3IU_yxh8-554" value="" style="whiteSpace=wrap;html=1;aspect=fixed;fillColor=#fff2cc;container=0;strokeColor=default;" vertex="1" parent="1">
          <mxGeometry x="896" y="128" width="32" height="32" as="geometry" />
        </mxCell>
        <mxCell id="9--wFmNr1qDu3IU_yxh8-555" value="" style="whiteSpace=wrap;html=1;aspect=fixed;fillColor=#fff2cc;container=0;strokeColor=default;" vertex="1" parent="1">
          <mxGeometry x="928" y="128" width="32" height="32" as="geometry" />
        </mxCell>
        <mxCell id="9--wFmNr1qDu3IU_yxh8-556" value="" style="whiteSpace=wrap;html=1;aspect=fixed;fillColor=none;container=0;" vertex="1" parent="1">
          <mxGeometry x="896" y="160" width="32" height="32" as="geometry" />
        </mxCell>
        <mxCell id="9--wFmNr1qDu3IU_yxh8-557" value="" style="whiteSpace=wrap;html=1;aspect=fixed;fillColor=none;container=0;" vertex="1" parent="1">
          <mxGeometry x="928" y="160" width="32" height="32" as="geometry" />
        </mxCell>
        <mxCell id="9--wFmNr1qDu3IU_yxh8-558" value="" style="whiteSpace=wrap;html=1;aspect=fixed;fillColor=#fff2cc;container=0;strokeColor=default;" vertex="1" parent="1">
          <mxGeometry x="960" y="128" width="32" height="32" as="geometry" />
        </mxCell>
        <mxCell id="9--wFmNr1qDu3IU_yxh8-559" value="" style="whiteSpace=wrap;html=1;aspect=fixed;fillColor=#fff2cc;container=0;strokeColor=default;" vertex="1" parent="1">
          <mxGeometry x="992" y="128" width="32" height="32" as="geometry" />
        </mxCell>
        <mxCell id="9--wFmNr1qDu3IU_yxh8-560" value="" style="whiteSpace=wrap;html=1;aspect=fixed;fillColor=none;container=0;" vertex="1" parent="1">
          <mxGeometry x="960" y="160" width="32" height="32" as="geometry" />
        </mxCell>
        <mxCell id="9--wFmNr1qDu3IU_yxh8-561" value="" style="whiteSpace=wrap;html=1;aspect=fixed;fillColor=none;container=0;" vertex="1" parent="1">
          <mxGeometry x="992" y="160" width="32" height="32" as="geometry" />
        </mxCell>
        <mxCell id="9--wFmNr1qDu3IU_yxh8-562" value="" style="whiteSpace=wrap;html=1;aspect=fixed;fillColor=none;container=0;" vertex="1" parent="1">
          <mxGeometry x="768" y="192" width="32" height="32" as="geometry" />
        </mxCell>
        <mxCell id="9--wFmNr1qDu3IU_yxh8-563" value="" style="whiteSpace=wrap;html=1;aspect=fixed;fillColor=none;container=0;" vertex="1" parent="1">
          <mxGeometry x="800" y="192" width="32" height="32" as="geometry" />
        </mxCell>
        <mxCell id="9--wFmNr1qDu3IU_yxh8-564" value="" style="whiteSpace=wrap;html=1;aspect=fixed;fillColor=none;container=0;" vertex="1" parent="1">
          <mxGeometry x="768" y="224" width="32" height="32" as="geometry" />
        </mxCell>
        <mxCell id="9--wFmNr1qDu3IU_yxh8-565" value="" style="whiteSpace=wrap;html=1;aspect=fixed;fillColor=none;container=0;" vertex="1" parent="1">
          <mxGeometry x="800" y="224" width="32" height="32" as="geometry" />
        </mxCell>
        <mxCell id="9--wFmNr1qDu3IU_yxh8-566" value="" style="whiteSpace=wrap;html=1;aspect=fixed;fillColor=#fff2cc;container=0;strokeColor=default;" vertex="1" parent="1">
          <mxGeometry x="832" y="192" width="32" height="32" as="geometry" />
        </mxCell>
        <mxCell id="9--wFmNr1qDu3IU_yxh8-567" value="" style="whiteSpace=wrap;html=1;aspect=fixed;fillColor=none;container=0;" vertex="1" parent="1">
          <mxGeometry x="864" y="192" width="32" height="32" as="geometry" />
        </mxCell>
        <mxCell id="9--wFmNr1qDu3IU_yxh8-568" value="" style="whiteSpace=wrap;html=1;aspect=fixed;fillColor=#fff2cc;container=0;strokeColor=default;" vertex="1" parent="1">
          <mxGeometry x="832" y="224" width="32" height="32" as="geometry" />
        </mxCell>
        <mxCell id="9--wFmNr1qDu3IU_yxh8-569" value="" style="whiteSpace=wrap;html=1;aspect=fixed;fillColor=none;container=0;" vertex="1" parent="1">
          <mxGeometry x="864" y="224" width="32" height="32" as="geometry" />
        </mxCell>
        <mxCell id="9--wFmNr1qDu3IU_yxh8-570" value="" style="whiteSpace=wrap;html=1;aspect=fixed;fillColor=none;container=0;" vertex="1" parent="1">
          <mxGeometry x="768" y="256" width="32" height="32" as="geometry" />
        </mxCell>
        <mxCell id="9--wFmNr1qDu3IU_yxh8-571" value="" style="whiteSpace=wrap;html=1;aspect=fixed;fillColor=none;container=0;" vertex="1" parent="1">
          <mxGeometry x="800" y="256" width="32" height="32" as="geometry" />
        </mxCell>
        <mxCell id="9--wFmNr1qDu3IU_yxh8-572" value="" style="whiteSpace=wrap;html=1;aspect=fixed;fillColor=none;container=0;" vertex="1" parent="1">
          <mxGeometry x="768" y="288" width="32" height="32" as="geometry" />
        </mxCell>
        <mxCell id="9--wFmNr1qDu3IU_yxh8-573" value="" style="whiteSpace=wrap;html=1;aspect=fixed;fillColor=none;container=0;" vertex="1" parent="1">
          <mxGeometry x="800" y="288" width="32" height="32" as="geometry" />
        </mxCell>
        <mxCell id="9--wFmNr1qDu3IU_yxh8-574" value="" style="whiteSpace=wrap;html=1;aspect=fixed;fillColor=#fff2cc;container=0;strokeColor=default;" vertex="1" parent="1">
          <mxGeometry x="832" y="256" width="32" height="32" as="geometry" />
        </mxCell>
        <mxCell id="9--wFmNr1qDu3IU_yxh8-575" value="" style="whiteSpace=wrap;html=1;aspect=fixed;fillColor=none;container=0;" vertex="1" parent="1">
          <mxGeometry x="864" y="256" width="32" height="32" as="geometry" />
        </mxCell>
        <mxCell id="9--wFmNr1qDu3IU_yxh8-576" value="" style="whiteSpace=wrap;html=1;aspect=fixed;fillColor=#fff2cc;container=0;strokeColor=default;" vertex="1" parent="1">
          <mxGeometry x="832" y="288" width="32" height="32" as="geometry" />
        </mxCell>
        <mxCell id="9--wFmNr1qDu3IU_yxh8-577" value="" style="whiteSpace=wrap;html=1;aspect=fixed;fillColor=none;container=0;" vertex="1" parent="1">
          <mxGeometry x="864" y="288" width="32" height="32" as="geometry" />
        </mxCell>
        <mxCell id="9--wFmNr1qDu3IU_yxh8-578" value="" style="whiteSpace=wrap;html=1;aspect=fixed;fillColor=none;container=0;" vertex="1" parent="1">
          <mxGeometry x="896" y="192" width="32" height="32" as="geometry" />
        </mxCell>
        <mxCell id="9--wFmNr1qDu3IU_yxh8-579" value="" style="whiteSpace=wrap;html=1;aspect=fixed;fillColor=none;container=0;" vertex="1" parent="1">
          <mxGeometry x="928" y="192" width="32" height="32" as="geometry" />
        </mxCell>
        <mxCell id="9--wFmNr1qDu3IU_yxh8-580" value="" style="whiteSpace=wrap;html=1;aspect=fixed;fillColor=none;container=0;" vertex="1" parent="1">
          <mxGeometry x="896" y="224" width="32" height="32" as="geometry" />
        </mxCell>
        <mxCell id="9--wFmNr1qDu3IU_yxh8-581" value="" style="whiteSpace=wrap;html=1;aspect=fixed;fillColor=none;container=0;" vertex="1" parent="1">
          <mxGeometry x="928" y="224" width="32" height="32" as="geometry" />
        </mxCell>
        <mxCell id="9--wFmNr1qDu3IU_yxh8-582" value="" style="whiteSpace=wrap;html=1;aspect=fixed;fillColor=none;container=0;" vertex="1" parent="1">
          <mxGeometry x="960" y="192" width="32" height="32" as="geometry" />
        </mxCell>
        <mxCell id="9--wFmNr1qDu3IU_yxh8-583" value="" style="whiteSpace=wrap;html=1;aspect=fixed;fillColor=none;container=0;" vertex="1" parent="1">
          <mxGeometry x="992" y="192" width="32" height="32" as="geometry" />
        </mxCell>
        <mxCell id="9--wFmNr1qDu3IU_yxh8-584" value="" style="whiteSpace=wrap;html=1;aspect=fixed;fillColor=none;container=0;" vertex="1" parent="1">
          <mxGeometry x="960" y="224" width="32" height="32" as="geometry" />
        </mxCell>
        <mxCell id="9--wFmNr1qDu3IU_yxh8-585" value="" style="whiteSpace=wrap;html=1;aspect=fixed;fillColor=none;container=0;" vertex="1" parent="1">
          <mxGeometry x="992" y="224" width="32" height="32" as="geometry" />
        </mxCell>
        <mxCell id="9--wFmNr1qDu3IU_yxh8-586" value="" style="whiteSpace=wrap;html=1;aspect=fixed;fillColor=none;container=0;" vertex="1" parent="1">
          <mxGeometry x="896" y="256" width="32" height="32" as="geometry" />
        </mxCell>
        <mxCell id="9--wFmNr1qDu3IU_yxh8-587" value="" style="whiteSpace=wrap;html=1;aspect=fixed;fillColor=none;container=0;" vertex="1" parent="1">
          <mxGeometry x="928" y="256" width="32" height="32" as="geometry" />
        </mxCell>
        <mxCell id="9--wFmNr1qDu3IU_yxh8-588" value="" style="whiteSpace=wrap;html=1;aspect=fixed;fillColor=none;container=0;" vertex="1" parent="1">
          <mxGeometry x="896" y="288" width="32" height="32" as="geometry" />
        </mxCell>
        <mxCell id="9--wFmNr1qDu3IU_yxh8-589" value="" style="whiteSpace=wrap;html=1;aspect=fixed;fillColor=none;container=0;" vertex="1" parent="1">
          <mxGeometry x="928" y="288" width="32" height="32" as="geometry" />
        </mxCell>
        <mxCell id="9--wFmNr1qDu3IU_yxh8-590" value="" style="whiteSpace=wrap;html=1;aspect=fixed;fillColor=none;container=0;" vertex="1" parent="1">
          <mxGeometry x="960" y="256" width="32" height="32" as="geometry" />
        </mxCell>
        <mxCell id="9--wFmNr1qDu3IU_yxh8-591" value="" style="whiteSpace=wrap;html=1;aspect=fixed;fillColor=none;container=0;" vertex="1" parent="1">
          <mxGeometry x="992" y="256" width="32" height="32" as="geometry" />
        </mxCell>
        <mxCell id="9--wFmNr1qDu3IU_yxh8-592" value="" style="whiteSpace=wrap;html=1;aspect=fixed;fillColor=none;container=0;" vertex="1" parent="1">
          <mxGeometry x="960" y="288" width="32" height="32" as="geometry" />
        </mxCell>
        <mxCell id="9--wFmNr1qDu3IU_yxh8-593" value="" style="whiteSpace=wrap;html=1;aspect=fixed;fillColor=none;container=0;" vertex="1" parent="1">
          <mxGeometry x="992" y="288" width="32" height="32" as="geometry" />
        </mxCell>
        <mxCell id="9--wFmNr1qDu3IU_yxh8-594" value="&lt;b&gt;&lt;font face=&quot;Comic Sans MS&quot; style=&quot;font-size: 20px;&quot;&gt;Phase1&lt;/font&gt;&lt;/b&gt;" style="text;html=1;align=center;verticalAlign=middle;whiteSpace=wrap;rounded=0;" vertex="1" parent="1">
          <mxGeometry x="144" y="28" width="90" height="30" as="geometry" />
        </mxCell>
        <mxCell id="9--wFmNr1qDu3IU_yxh8-595" value="&lt;b&gt;&lt;font face=&quot;Comic Sans MS&quot; style=&quot;font-size: 20px;&quot;&gt;Phase2&lt;/font&gt;&lt;/b&gt;" style="text;html=1;align=center;verticalAlign=middle;whiteSpace=wrap;rounded=0;" vertex="1" parent="1">
          <mxGeometry x="492" y="28" width="90" height="30" as="geometry" />
        </mxCell>
        <mxCell id="9--wFmNr1qDu3IU_yxh8-596" value="&lt;b&gt;&lt;font face=&quot;Comic Sans MS&quot; style=&quot;font-size: 20px;&quot;&gt;Phase3&lt;/font&gt;&lt;/b&gt;" style="text;html=1;align=center;verticalAlign=middle;whiteSpace=wrap;rounded=0;" vertex="1" parent="1">
          <mxGeometry x="848" y="28" width="90" height="30" as="geometry" />
        </mxCell>
        <mxCell id="9--wFmNr1qDu3IU_yxh8-597" value="&lt;font face=&quot;Comic Sans MS&quot; style=&quot;font-size: 16px;&quot;&gt;in shared memory&lt;/font&gt;" style="rounded=0;whiteSpace=wrap;html=1;fillColor=none;strokeColor=#EE0000;strokeWidth=2;dashed=1;" vertex="1" parent="1">
          <mxGeometry x="528" y="416" width="144" height="32" as="geometry" />
        </mxCell>
        <mxCell id="9--wFmNr1qDu3IU_yxh8-602" value="&lt;font style=&quot;font-size: 20px;&quot; face=&quot;Comic Sans MS&quot;&gt;large&amp;nbsp;&lt;/font&gt;&lt;div style=&quot;font-size: 20px;&quot;&gt;&lt;font style=&quot;font-size: 20px;&quot; face=&quot;Comic Sans MS&quot;&gt;block&lt;/font&gt;&lt;/div&gt;" style="whiteSpace=wrap;html=1;aspect=fixed;fillColor=none;strokeColor=#0000FF;strokeWidth=2;dashed=1;" vertex="1" parent="1">
          <mxGeometry x="416" y="368" width="80" height="80" as="geometry" />
        </mxCell>
        <mxCell id="9--wFmNr1qDu3IU_yxh8-604" value="" style="whiteSpace=wrap;html=1;aspect=fixed;fillColor=none;strokeColor=default;strokeWidth=2;" vertex="1" parent="1">
          <mxGeometry x="528" y="368" width="32" height="32" as="geometry" />
        </mxCell>
        <mxCell id="9--wFmNr1qDu3IU_yxh8-605" value="&lt;font style=&quot;font-size: 16px;&quot; face=&quot;Comic Sans MS&quot;&gt;small block&lt;/font&gt;" style="text;html=1;align=center;verticalAlign=middle;whiteSpace=wrap;rounded=0;" vertex="1" parent="1">
          <mxGeometry x="564" y="368" width="104" height="30" as="geometry" />
        </mxCell>
        <mxCell id="9--wFmNr1qDu3IU_yxh8-606" value="" style="whiteSpace=wrap;html=1;aspect=fixed;fillColor=none;strokeColor=#0000FF;strokeWidth=2;dashed=1;" vertex="1" parent="1">
          <mxGeometry x="124" y="124" width="40" height="40" as="geometry" />
        </mxCell>
        <mxCell id="9--wFmNr1qDu3IU_yxh8-608" value="" style="rounded=0;whiteSpace=wrap;html=1;fillColor=none;strokeColor=#0000FF;strokeWidth=2;dashed=1;" vertex="1" parent="1">
          <mxGeometry x="540" y="124" width="72" height="40" as="geometry" />
        </mxCell>
        <mxCell id="9--wFmNr1qDu3IU_yxh8-609" value="" style="rounded=0;whiteSpace=wrap;html=1;fillColor=none;strokeColor=#0000FF;strokeWidth=2;dashed=1;" vertex="1" parent="1">
          <mxGeometry x="956" y="188" width="72" height="72" as="geometry" />
        </mxCell>
        <mxCell id="9--wFmNr1qDu3IU_yxh8-610" value="" style="rounded=0;whiteSpace=wrap;html=1;fillColor=none;strokeColor=#EE0000;strokeWidth=2;dashed=1;" vertex="1" parent="1">
          <mxGeometry x="476" y="124" width="40" height="40" as="geometry" />
        </mxCell>
        <mxCell id="9--wFmNr1qDu3IU_yxh8-612" value="" style="rounded=0;whiteSpace=wrap;html=1;fillColor=none;strokeColor=#EE0000;strokeWidth=2;dashed=1;" vertex="1" parent="1">
          <mxGeometry x="956" y="124" width="72" height="40" as="geometry" />
        </mxCell>
        <mxCell id="9--wFmNr1qDu3IU_yxh8-614" value="" style="rounded=0;whiteSpace=wrap;html=1;fillColor=none;strokeColor=#EE0000;strokeWidth=2;dashed=1;" vertex="1" parent="1">
          <mxGeometry x="828" y="188" width="40" height="72" as="geometry" />
        </mxCell>
        <mxCell id="9--wFmNr1qDu3IU_yxh8-611" value="" style="rounded=0;whiteSpace=wrap;html=1;fillColor=none;strokeColor=#EE0000;strokeWidth=2;dashed=1;perimeterSpacing=0;dashPattern=1 4;" vertex="1" parent="1">
          <mxGeometry x="540" y="124" width="72" height="40" as="geometry" />
        </mxCell>
        <mxCell id="9--wFmNr1qDu3IU_yxh8-616" value="&lt;font style=&quot;&quot;&gt;&lt;font style=&quot;font-size: 14px;&quot; face=&quot;Lucida Console&quot;&gt;SPAN=F&lt;/font&gt;&lt;font style=&quot;font-size: 14px;&quot; face=&quot;Lucida Console&quot;&gt;IXED_SPAN=2&amp;nbsp;&lt;/font&gt;&lt;/font&gt;&lt;div&gt;&lt;font style=&quot;&quot;&gt;&lt;font face=&quot;Comic Sans MS&quot; style=&quot;font-size: 14px;&quot;&gt;in the figure above&lt;/font&gt;&lt;/font&gt;&lt;/div&gt;" style="text;html=1;align=center;verticalAlign=middle;whiteSpace=wrap;rounded=0;" vertex="1" parent="1">
          <mxGeometry x="768" y="416" width="256" height="32" as="geometry" />
        </mxCell>
      </root>
    </mxGraphModel>
  </diagram>
</mxfile>
